<svg height='100px' width='100px'  fill="#000000" xmlns="http://www.w3.org/2000/svg" data-name="Layer 1" viewBox="0 0 48 48" x="0px" y="0px"><title>boxer shorts underpants underwear</title><path d="M39,15.92V12a1,1,0,0,0-1-1H10a1,1,0,0,0-1,1v3.92L6,34.84a1,1,0,0,0,.23.81A1,1,0,0,0,7,36H20a1,1,0,0,0,.89-.55L24,29.24l3.11,6.21A1,1,0,0,0,28,36H41a1,1,0,0,0,.76-.35,1,1,0,0,0,.23-.81ZM11,13H37v2H11ZM28.62,34l-3.73-7.45a1,1,0,0,0-1.78,0L19.38,34H8.17l2.68-17H21.59l-2.3,2.29a1,1,0,0,0,1.42,1.42L24,17.41l3.29,3.3a1,1,0,0,0,1.42,0,1,1,0,0,0,0-1.42L26.41,17H37.15l2.68,17Z"></path></svg>