<svg height='100px' width='100px'  fill="#000000" xmlns="http://www.w3.org/2000/svg" data-name="Layer 2" viewBox="0 0 100 100" x="0px" y="0px"><title>Artboard 85</title><path d="M69.21,82.67h0L64.39,45.28a.92.92,0,0,0-.37-.61C63.09,43.16,62.41,41.93,62,41v0a5.63,5.63,0,0,1-.65-1.76c0-1.3.79-4.33,2.24-8.55a14.53,14.53,0,0,0,.78-4.7V22.12s0,0,0,0a1,1,0,0,0-.06-.33v0h0l-3-7.5a1,1,0,0,0-.93-.63H55.15A1,1,0,0,0,54.22,15l2.72,6.81-7,5.27L43,21.83,45.77,15a1,1,0,0,0-.93-1.37H39.67a1,1,0,0,0-.93.63l-3,7.52a1,1,0,0,0-.06.33s0,0,0,0V26a14.63,14.63,0,0,0,.78,4.71c1.45,4.21,2.24,7.24,2.24,8.54,0,.69-1.38,3.3-2.72,5.41a1,1,0,0,0-.36.64l-5.16,40a1,1,0,0,0,.24.79,1,1,0,0,0,.75.34H68.56a1,1,0,0,0,.75-.34,1,1,0,0,0,.24-.79ZM39.58,42.39H60.42c.31.61.68,1.28,1.11,2H38.46C38.82,43.8,39.22,43.1,39.58,42.39ZM59.64,15.6l2.2,5.52h-3L56.62,15.6Zm-19.29,0h3l-2.21,5.52h-3ZM38.35,30A12.58,12.58,0,0,1,37.67,26V23.12h3.75l7.93,6a.39.39,0,0,0,.11.06l.1.06a1.09,1.09,0,0,0,.39.08h0a.92.92,0,0,0,.39-.09l.1-.05a.6.6,0,0,0,.11-.06l7.93-6h3.84V26A12.58,12.58,0,0,1,61.64,30c-1.55,4.54-2.34,7.64-2.34,9.19a4.12,4.12,0,0,0,.24,1.16H40.45a3.81,3.81,0,0,0,.24-1.16C40.69,37.67,39.9,34.58,38.35,30ZM32.58,84.4l4.9-38h4.34V59.94a1,1,0,0,0,2,0V46.41H49l0,19a1,1,0,0,0,1,1h0a1,1,0,0,0,1-1l0-19h5.18V59.94a1,1,0,0,0,2,0V46.41h4.35l4.7,36.51h0l.2,1.48Z"></path></svg>