<svg xmlns="http://www.w3.org/2000/svg" data-name="Layer 1" viewBox="0 0 48 60" x="0px" y="0px"><title>hanger hook</title><path d="M41.53,31.87a1.29,1.29,0,0,0-.3-.22L25,24v-2.3a4.93,4.93,0,1,0-5.93-4.83,1,1,0,0,0,2,0A2.93,2.93,0,1,1,24,19.77a1,1,0,0,0-1,1V24L6.77,31.65a1.29,1.29,0,0,0-.3.22,2.5,2.5,0,0,0,1.82,4.21H39.71a2.5,2.5,0,0,0,1.82-4.21Zm-1.36,1.91a.48.48,0,0,1-.46.3H8.29a.48.48,0,0,1-.46-.3.47.47,0,0,1,0-.42L24,25.71l16.16,7.65A.47.47,0,0,1,40.17,33.78Z"/><text x="0" y="63" fill="#000000" font-size="5px" font-weight="bold" font-family="'Helvetica Neue', Helvetica, Arial-Unicode, Arial, Sans-serif">Created by Mutualism</text><text x="0" y="68" fill="#000000" font-size="5px" font-weight="bold" font-family="'Helvetica Neue', Helvetica, Arial-Unicode, Arial, Sans-serif">from the Noun Project</text></svg>