<svg height='100px' width='100px'  fill="#000000" xmlns="http://www.w3.org/2000/svg" xmlns:xlink="http://www.w3.org/1999/xlink" version="1.1" x="0px" y="0px" viewBox="0 0 52 52" style="enable-background:new 0 0 52 52;" xml:space="preserve"><g><g><g><path d="M9,45H4.7c-1.1,0-2-0.6-2.5-1.6c-0.5-1-0.3-2.2,0.4-3l6.6-7.7c0.5-0.9,4.7-8.7,2-13.2C8.2,14.3,7,12.4,7,12.4     c-0.3-0.5-0.2-1.1,0.3-1.4c1.3-0.9,8.2-5.4,11.2-3.6c0.2,0.1,0.4,0.3,0.4,0.5c2.2,6.6,6.6,19.4,7.5,21.3c0.4,0.9,0.5,1.7,0.1,2.4     c-0.6,1.4-2.4,1.9-4,2.4c-0.3,0.1-0.6,0.2-0.8,0.2c-0.6,0.2-2.1,1.6-6.4,7.5C13.9,43.8,11.5,45,9,45z M9.2,12.2     c0.6,1,1.8,3,3.8,6.3c3.4,5.8-1.8,14.9-2,15.3c0,0.1-0.1,0.1-0.1,0.2l-6.7,7.7C3.9,42,4,42.4,4.1,42.6C4.1,42.7,4.3,43,4.7,43H9     c1.9,0,3.6-0.9,4.8-2.5c4-5.5,6-7.8,7.4-8.2c0.3-0.1,0.6-0.2,0.9-0.3c1-0.3,2.5-0.7,2.7-1.2c0.1-0.2,0-0.4-0.1-0.7     c-1.1-2.3-6.4-18.2-7.4-21.1C15.6,8.7,11.8,10.5,9.2,12.2z M10.1,33.3L10.1,33.3L10.1,33.3z"></path></g><g><path d="M12.2,20c-0.2,0-0.5-0.1-0.7-0.3c-0.4-0.4-0.4-1,0-1.4l6.9-7.3c0.4-0.4,1-0.4,1.4,0c0.4,0.4,0.4,1,0,1.4l-6.9,7.3     C12.7,19.9,12.4,20,12.2,20z"></path></g><g><path d="M19.1,36.3c-0.4,0-0.8-0.2-0.9-0.6c-3.6-8.1,3.9-14,4-14c0.4-0.3,1.1-0.3,1.4,0.2c0.3,0.4,0.3,1.1-0.2,1.4     c-0.3,0.2-6.3,5-3.4,11.6c0.2,0.5,0,1.1-0.5,1.3C19.4,36.2,19.2,36.3,19.1,36.3z"></path></g><g><path d="M13.4,43.4c-0.5,0-1-0.4-1-0.9c-0.1-1.7-0.5-3.8-1.9-4.5C9,37.2,7,38.4,6.9,38.4c-0.5,0.3-1.1,0.1-1.4-0.3     S5.4,37,5.9,36.7c0.1-0.1,3.1-1.8,5.6-0.5c1.7,0.9,2.7,2.9,2.9,6.1C14.4,42.8,14,43.3,13.4,43.4C13.4,43.4,13.4,43.4,13.4,43.4z"></path></g></g><g><g><path d="M47.3,45H43c-2.5,0-4.9-1.2-6.4-3.3c-4.2-5.9-5.8-7.3-6.4-7.5c-0.3-0.1-0.5-0.2-0.8-0.2c-1.6-0.5-3.4-1-4-2.4     c-0.3-0.7-0.3-1.5,0.1-2.4c0.9-1.9,5.3-14.8,7.5-21.3c0.1-0.2,0.2-0.4,0.4-0.5c3-1.8,9.9,2.7,11.2,3.6c0.4,0.3,0.6,0.9,0.3,1.4     c0,0-1.2,1.9-4.3,7.1c-2.7,4.5,1.5,12.3,2,13.2l6.6,7.7c0.7,0.8,0.9,2,0.4,3C49.3,44.4,48.3,45,47.3,45z M34.9,9     c-1,2.9-6.3,18.8-7.4,21.1c-0.1,0.3-0.2,0.5-0.1,0.7c0.2,0.5,1.7,1,2.7,1.2c0.3,0.1,0.6,0.2,0.9,0.3c1.3,0.4,3.4,2.7,7.4,8.2     c1.1,1.5,2.9,2.5,4.8,2.5h4.2c0.4,0,0.6-0.3,0.7-0.4c0.1-0.1,0.2-0.5-0.1-0.9l-6.7-7.7c0,0-0.1-0.1-0.1-0.2     c-0.2-0.4-5.5-9.6-2-15.3c2-3.3,3.2-5.3,3.8-6.3C40.2,10.5,36.4,8.7,34.9,9z"></path></g><g><path d="M39.8,20c-0.3,0-0.5-0.1-0.7-0.3l-6.9-7.3c-0.4-0.4-0.4-1,0-1.4s1-0.4,1.4,0l6.9,7.3c0.4,0.4,0.4,1,0,1.4     C40.3,19.9,40.1,20,39.8,20z"></path></g><g><path d="M32.9,36.3c-0.1,0-0.3,0-0.4-0.1c-0.5-0.2-0.7-0.8-0.5-1.3c2.9-6.6-3.1-11.4-3.4-11.6c-0.4-0.3-0.5-1-0.2-1.4     c0.3-0.4,1-0.5,1.4-0.2c0.1,0.1,7.5,6,4,14C33.7,36,33.3,36.3,32.9,36.3z"></path></g><g><path d="M38.6,43.4C38.6,43.4,38.6,43.4,38.6,43.4c-0.6,0-1-0.5-1-1.1c0.2-3.2,1.2-5.2,2.9-6.1c2.5-1.3,5.4,0.5,5.6,0.5     c0.5,0.3,0.6,0.9,0.3,1.4c-0.3,0.5-0.9,0.6-1.4,0.3c0,0-2.1-1.2-3.6-0.5c-1.3,0.7-1.7,2.8-1.9,4.5C39.6,43,39.1,43.4,38.6,43.4z"></path></g></g></g></svg>