<svg height='100px' width='100px'  fill="#000000" xmlns:dc="http://purl.org/dc/elements/1.1/" xmlns:cc="http://creativecommons.org/ns#" xmlns:rdf="http://www.w3.org/1999/02/22-rdf-syntax-ns#" xmlns:svg="http://www.w3.org/2000/svg" xmlns="http://www.w3.org/2000/svg" xmlns:sodipodi="http://sodipodi.sourceforge.net/DTD/sodipodi-0.dtd" xmlns:inkscape="http://www.inkscape.org/namespaces/inkscape" version="1.1" x="0px" y="0px" viewBox="0 0 100 100"><g transform="translate(0,-952.36218)"><path style="text-indent:0;text-transform:none;direction:ltr;block-progression:tb;baseline-shift:baseline;color:#000000;enable-background:accumulate;" d="m 27.259047,960.27097 c -2.00324,22.1388 -1.00328,62.13053 -1.05178,81.09153 0.55347,2.7355 3.85005,3.9398 6.27977,3.9687 l 7.57905,0.031 c 1.92812,-0.2481 3.3824,-1.1138 3.89779,-2.8749 2.04791,-14.2082 3.99968,-28.7612 5.97043,-43.09263 1.88089,14.37773 4.15973,28.70773 5.97042,43.09263 0.0309,1.8623 2.37332,2.5716 3.95967,2.8749 l 7.4553,-0.031 c 2.47479,0.018 6.43445,-0.9816 6.40351,-3.9687 0.0485,-18.9682 1.05963,-58.97513 -1.11365,-81.12273 -0.0615,-0.5022 -0.55212,-0.9104 -1.05179,-0.875 -17.74294,0.8208 -25.52235,0.9987 -43.24693,0 -0.0928,-0.013 -1.08272,-0.013 -1.05179,0.9062 z m 1.91797,1.125 c 16.55565,0.9053 24.95921,0.7572 41.51458,0 0.1507,1.6239 0.28239,3.3608 0.40215,5.1561 -14.62965,1.7387 -27.65108,1.7151 -42.28795,-0.031 0.10922,-1.7846 0.23311,-3.5094 0.37122,-5.1248 z m -0.46403,7.1248 c 6.30387,0.7475 12.33967,1.1435 18.31344,1.2499 0.0228,2.32 0.24438,3.8893 1.05178,5.0312 1.03847,1.2993 2.48225,1.4776 3.8978,1.5624 0.52298,0.01 1.00401,-0.4715 1.00401,-0.9999 0,-0.5284 -0.48103,-1.0075 -1.00401,-1 -0.95871,0.079 -1.65737,-0.2344 -2.28918,-0.7188 -0.35463,-0.5014 -0.61282,-1.714 -0.64964,-3.8436 7.24894,0.042 14.49545,-0.377 22.14936,-1.2812 1.33627,22.5619 0.60011,55.92283 0.55683,72.84173 -0.87159,1.3171 -2.93881,1.9872 -4.42368,1.9688 l -7.4553,0.031 c -0.85653,-0.1472 -1.51278,-0.7187 -1.97979,-1.1557 l -6.99127,-50.15493 c -0.0812,-0.4572 -0.51468,-0.8234 -0.97446,-0.8234 -0.45976,0 -0.89323,0.3662 -0.97444,0.8234 -2.16501,16.78323 -4.8214,33.53033 -6.89847,50.31113 -0.56044,0.5167 -1.35663,0.7913 -1.97979,0.9995 l -7.57904,-0.031 c -1.7256,-0.2173 -3.25663,-0.5758 -4.29994,-1.9688 0.0433,-16.9253 -0.69481,-50.27603 0.52589,-72.84173 z" fill="#000000" fill-opacity="1" stroke="none" marker="none" visibility="visible" display="inline" overflow="visible"></path></g></svg>