<svg height='100px' width='100px'  fill="#000000" xmlns="http://www.w3.org/2000/svg" xmlns:xlink="http://www.w3.org/1999/xlink" version="1.1" x="0px" y="0px" viewBox="0 0 52 52" style="enable-background:new 0 0 52 52;" xml:space="preserve"><g><g><g><path d="M25.9995117,51L25.9995117,51c-0.3388672,0-0.6552734-0.171875-0.8388672-0.4560547l-6.9550781-10.7353516     c-0.1269531-0.1953125-0.1816406-0.4282227-0.1542969-0.6591797l3.2451172-28.0263672     c0.0585938-0.5043945,0.4853516-0.8847656,0.9931641-0.8847656h7.4208984c0.5078125,0,0.9345703,0.3803711,0.9931641,0.8847656     l3.2451172,28.0263672c0.0273438,0.230957-0.0273438,0.4638672-0.1542969,0.6591797l-6.9560547,10.7353516     C26.6547852,50.828125,26.3383789,51,25.9995117,51z M20.0795898,39.0224609l5.9199219,9.1386719l5.9208984-9.1386719     l-3.1005859-26.7841797h-5.6396484L20.0795898,39.0224609z"></path></g><g><path d="M29.7104492,12.2382813h-7.4208984c-0.3388672,0-0.6542969-0.171875-0.8388672-0.4560547l-3.2451172-5.0053711     c-0.2148438-0.3310547-0.2148438-0.7568359,0-1.0878906l2.7431641-4.2329102C21.1323242,1.171875,21.4487305,1,21.7875977,1     h8.4257813c0.3388672,0,0.6552734,0.171875,0.8388672,0.4560547l2.7421875,4.2329102     c0.2148438,0.3310547,0.2148438,0.7573242,0,1.0878906l-3.2451172,5.0053711     C30.3647461,12.0664063,30.0493164,12.2382813,29.7104492,12.2382813z M22.8325195,10.2382813h6.3349609l2.5966797-4.0053711     L29.6694336,3H22.331543l-2.0957031,3.2329102L22.8325195,10.2382813z"></path></g></g><g><path d="M19.0444336,40.2646484c-0.2558594,0-0.5117188-0.0976563-0.7070313-0.2929688    c-0.390625-0.390625-0.390625-1.0234375,0-1.4140625l12.2919922-12.2924805c0.390625-0.390625,1.0234375-0.390625,1.4140625,0    s0.390625,1.0234375,0,1.4140625L19.7514648,39.9716797C19.5561523,40.1669922,19.300293,40.2646484,19.0444336,40.2646484z"></path></g><g><path d="M20.2358398,29.9770508c-0.2558594,0-0.5117188-0.0976563-0.7070313-0.2929688    c-0.390625-0.390625-0.390625-1.0234375,0-1.4140625L29.753418,18.0444336c0.390625-0.390625,1.0234375-0.390625,1.4140625,0    s0.390625,1.0234375,0,1.4140625L20.9428711,29.684082C20.7475586,29.8793945,20.4916992,29.9770508,20.2358398,29.9770508z"></path></g></g></svg>