<svg height='100px' width='100px'  fill="#000000" xmlns="http://www.w3.org/2000/svg" data-name="Layer 1" viewBox="0 0 48 48" x="0px" y="0px"><title>t-shirt shirt clothes outfit</title><path d="M41.6,16.06l-8-5.86A1,1,0,0,0,33,10H29a1,1,0,0,0-1,1,4,4,0,0,1-8,0,1,1,0,0,0-1-1H15a1,1,0,0,0-.59.19l-8,5.86a1,1,0,0,0-.24,1.36l4,6a1,1,0,0,0,1.26.35L14,22.58V37a1,1,0,0,0,1,1H33a1,1,0,0,0,1-1V22.58l2.57,1.23a1,1,0,0,0,1.26-.35l4-6A1,1,0,0,0,41.6,16.06Zm-5,5.57L33.43,20.1a1,1,0,0,0-1,0A1,1,0,0,0,32,21V36H16V21a1,1,0,0,0-.47-.85,1,1,0,0,0-1,0l-3.22,1.53-3-4.52,7-5.1h2.79a6,6,0,0,0,11.76,0h2.79l7,5.1Z"></path></svg>